<?xml version="1.0" standalone="no"?>
<!DOCTYPE svg PUBLIC "-//W3C//DTD SVG 20010904//EN"
 "http://www.w3.org/TR/2001/REC-SVG-20010904/DTD/svg10.dtd">
<svg version="1.0" xmlns="http://www.w3.org/2000/svg"
 width="1598.000000pt" height="1598.000000pt" viewBox="0 0 1598.000000 1598.000000"
 preserveAspectRatio="xMidYMid meet">
<metadata>
Created by potrace 1.11, written by Peter Selinger 2001-2013
</metadata>
<g transform="translate(0.000000,1598.000000) scale(0.100000,-0.100000)"
fill="#000000" stroke="none">
<path d="M3339 14416 c-2 -2 -40 -7 -84 -10 -44 -3 -92 -8 -105 -11 -14 -3
-43 -7 -65 -10 -309 -38 -726 -183 -1030 -358 -60 -34 -250 -156 -280 -179
-199 -154 -388 -329 -505 -468 -30 -36 -57 -67 -60 -70 -37 -37 -212 -290
-256 -370 -10 -19 -21 -37 -24 -40 -3 -3 -20 -34 -38 -70 -19 -36 -37 -72 -42
-80 -82 -143 -224 -563 -254 -750 -3 -19 -8 -46 -11 -60 -10 -51 -22 -142 -32
-240 -10 -99 -10 -7304 0 -7395 44 -403 146 -748 318 -1082 71 -137 69 -133
153 -262 304 -465 701 -818 1196 -1062 176 -87 427 -180 575 -214 113 -26 269
-57 305 -61 25 -3 56 -7 70 -9 14 -3 63 -8 110 -12 116 -11 9399 -10 9530 0
58 5 107 10 110 12 3 2 30 6 60 10 45 5 194 35 310 61 55 12 270 82 349 114
424 168 813 437 1116 771 98 107 151 173 231 284 57 79 175 270 175 282 0 4 6
15 13 23 14 15 100 191 131 265 79 190 167 489 189 640 3 22 10 65 15 96 5 31
13 98 18 150 10 117 11 7298 1 7394 -5 39 -10 81 -12 95 -3 14 -8 47 -11 74
-13 112 -66 336 -115 483 -181 550 -524 1043 -980 1409 -41 33 -86 67 -100 77
-14 9 -45 31 -70 48 -133 95 -342 209 -545 299 -75 33 -327 116 -440 144 -88
22 -128 30 -246 50 -15 2 -53 7 -85 11 -33 4 -70 10 -84 13 -26 7 -9494 15
-9501 8z"/>
</g>
</svg>
